<svg xmlns="http://www.w3.org/2000/svg" viewBox="0 0 300 200" width="300" height="200">
  <rect width="300" height="200" fill="#f8fafc"/>
  <g fill="#fff" stroke="#e2e8f0">
    <rect x="20" y="20" width="260" height="50" rx="6"/>
    <rect x="20" y="75" width="260" height="50" rx="6"/>
    <rect x="20" y="130" width="260" height="50" rx="6"/>
  </g>
  <g fill="#cbd5e1">
    <rect x="28" y="28" width="34" height="34" rx="4"/>
    <rect x="28" y="83" width="34" height="34" rx="4"/>
    <rect x="28" y="138" width="34" height="34" rx="4"/>
  </g>
  <g fill="#1a3a5c">
    <rect x="70" y="35" width="80" height="5" rx="2"/>
    <rect x="70" y="90" width="80" height="5" rx="2"/>
    <rect x="70" y="145" width="80" height="5" rx="2"/>
  </g>
  <g fill="#cbd5e1">
    <rect x="70" y="55" width="200" height="4" rx="2"/>
    <rect x="70" y="110" width="200" height="4" rx="2"/>
    <rect x="70" y="165" width="200" height="4" rx="2"/>
  </g>
  <g fill="#1a3a5c">
    <rect x="70" y="55" width="140" height="4" rx="2"/>
    <rect x="70" y="110" width="100" height="4" rx="2"/>
    <rect x="70" y="165" width="170" height="4" rx="2"/>
  </g>
</svg>
