<svg xmlns="http://www.w3.org/2000/svg" viewBox="0 0 300 200" width="300" height="200">
  <rect width="300" height="200" fill="#f8fafc"/>
  <rect x="20" y="20" width="260" height="30" fill="#e2e8f0"/>
  <g fill="#64748b">
    <rect x="30" y="32" width="40" height="6" rx="2"/>
    <rect x="150" y="32" width="30" height="6" rx="2"/>
    <rect x="200" y="32" width="30" height="6" rx="2"/>
    <rect x="250" y="32" width="20" height="6" rx="2"/>
  </g>
  <g fill="#fff" stroke="#e2e8f0">
    <rect x="20" y="50" width="260" height="25"/>
    <rect x="20" y="75" width="260" height="25"/>
    <rect x="20" y="100" width="260" height="25"/>
    <rect x="20" y="125" width="260" height="25"/>
  </g>
  <g fill="#1a3a5c">
    <rect x="30" y="60" width="80" height="5" rx="2"/>
    <rect x="30" y="85" width="80" height="5" rx="2"/>
    <rect x="30" y="110" width="80" height="5" rx="2"/>
    <rect x="30" y="135" width="80" height="5" rx="2"/>
  </g>
  <g fill="#7c3aed">
    <rect x="195" y="62" width="30" height="3" rx="1"/>
    <rect x="195" y="87" width="50" height="3" rx="1"/>
    <rect x="195" y="112" width="25" height="3" rx="1"/>
    <rect x="195" y="137" width="40" height="3" rx="1"/>
  </g>
  <rect x="110" y="165" width="80" height="20" rx="4" fill="#7c3aed"/>
  <text x="150" y="179" font-size="9" fill="#fff" text-anchor="middle">📊 감사보고서 →</text>
</svg>
