<svg xmlns="http://www.w3.org/2000/svg" viewBox="0 0 300 200" width="300" height="200">
  <rect width="300" height="200" fill="#fff"/>
  <g fill="#fff" stroke="#cbd5e1">
    <rect x="20" y="40" width="60" height="60" rx="6"/>
    <rect x="90" y="40" width="60" height="60" rx="6"/>
    <rect x="160" y="40" width="60" height="60" rx="6"/>
    <rect x="230" y="40" width="60" height="60" rx="6"/>
  </g>
  <g fill="#cbd5e1">
    <rect x="30" y="55" width="40" height="15" rx="2"/>
    <rect x="100" y="55" width="40" height="15" rx="2"/>
    <rect x="170" y="55" width="40" height="15" rx="2"/>
    <rect x="240" y="55" width="40" height="15" rx="2"/>
  </g>
  <g fill="#64748b">
    <rect x="35" y="110" width="30" height="5" rx="2"/>
    <rect x="105" y="110" width="30" height="5" rx="2"/>
    <rect x="175" y="110" width="30" height="5" rx="2"/>
    <rect x="245" y="110" width="30" height="5" rx="2"/>
  </g>
</svg>
