<svg xmlns="http://www.w3.org/2000/svg" viewBox="0 0 300 200" width="300" height="200">
  <rect width="300" height="200" fill="#f1f5f9"/>
  <g fill="#fff" stroke="#e2e8f0">
    <rect x="20" y="20" width="60" height="160" rx="6"/>
    <rect x="90" y="20" width="60" height="160" rx="6"/>
    <rect x="160" y="20" width="60" height="160" rx="6"/>
    <rect x="230" y="20" width="60" height="160" rx="6"/>
  </g>
  <g fill="#cbd5e1">
    <rect x="20" y="20" width="60" height="120" rx="6"/>
    <rect x="90" y="20" width="60" height="120" rx="6"/>
    <rect x="160" y="20" width="60" height="120" rx="6"/>
    <rect x="230" y="20" width="60" height="120" rx="6"/>
  </g>
  <g fill="#1a3a5c">
    <rect x="25" y="150" width="50" height="5" rx="2"/>
    <rect x="95" y="150" width="50" height="5" rx="2"/>
    <rect x="165" y="150" width="50" height="5" rx="2"/>
    <rect x="235" y="150" width="50" height="5" rx="2"/>
  </g>
</svg>
