<svg xmlns="http://www.w3.org/2000/svg" viewBox="0 0 300 200" width="300" height="200">
  <rect width="300" height="200" fill="#f1f5f9"/>
  <g fill="#fff" stroke="#e2e8f0">
    <rect x="20" y="50" width="80" height="100" rx="8"/>
    <rect x="110" y="50" width="80" height="100" rx="8"/>
    <rect x="200" y="50" width="80" height="100" rx="8"/>
  </g>
  <g fill="#cbd5e1">
    <rect x="30" y="65" width="60" height="6" rx="2"/>
    <rect x="30" y="77" width="60" height="6" rx="2"/>
    <rect x="30" y="89" width="40" height="6" rx="2"/>
    <rect x="120" y="65" width="60" height="6" rx="2"/>
    <rect x="120" y="77" width="60" height="6" rx="2"/>
    <rect x="210" y="65" width="60" height="6" rx="2"/>
    <rect x="210" y="77" width="60" height="6" rx="2"/>
    <rect x="210" y="89" width="50" height="6" rx="2"/>
  </g>
  <g fill="#1a3a5c"><circle cx="40" cy="135" r="6"/><circle cx="130" cy="135" r="6"/><circle cx="220" cy="135" r="6"/></g>
</svg>
