<svg xmlns="http://www.w3.org/2000/svg" viewBox="0 0 300 200" width="300" height="200">
  <rect width="300" height="200" fill="#f1f5f9"/>
  <g fill="#334155">
    <rect x="20" y="30" width="80" height="60" rx="4"/>
    <rect x="110" y="30" width="80" height="60" rx="4"/>
    <rect x="200" y="30" width="80" height="60" rx="4"/>
  </g>
  <g fill="#fff" opacity="0.9">
    <circle cx="60" cy="60" r="10"/>
    <circle cx="150" cy="60" r="10"/>
    <circle cx="240" cy="60" r="10"/>
  </g>
  <g fill="#1a3a5c">
    <path d="M56 55 L56 65 L66 60 Z"/>
    <path d="M146 55 L146 65 L156 60 Z"/>
    <path d="M236 55 L236 65 L246 60 Z"/>
  </g>
  <g fill="#64748b">
    <rect x="25" y="100" width="50" height="5" rx="2"/>
    <rect x="115" y="100" width="50" height="5" rx="2"/>
    <rect x="205" y="100" width="50" height="5" rx="2"/>
  </g>
</svg>
