<svg xmlns="http://www.w3.org/2000/svg" viewBox="0 0 300 200" width="300" height="200">
  <rect width="300" height="200" fill="#f8fafc"/>
  <g fill="#fff" stroke="#cbd5e1">
    <rect x="15" y="30" width="85" height="160" rx="10"/>
    <rect x="205" y="30" width="85" height="160" rx="10"/>
  </g>
  <rect x="105" y="15" width="95" height="180" rx="10" fill="#fff" stroke="#1a3a5c" stroke-width="2"/>
  <g fill="#1a3a5c">
    <rect x="35" y="60" width="45" height="12" rx="2"/>
    <rect x="130" y="45" width="45" height="15" rx="2"/>
    <rect x="225" y="60" width="45" height="12" rx="2"/>
  </g>
  <g fill="#22c55e">
    <text x="30" y="105" font-size="9">✓</text>
    <text x="30" y="120" font-size="9">✓</text>
    <text x="125" y="90" font-size="9">✓</text>
    <text x="125" y="105" font-size="9">✓</text>
    <text x="125" y="120" font-size="9">✓</text>
    <text x="220" y="105" font-size="9">✓</text>
  </g>
  <rect x="25" y="160" width="65" height="18" rx="4" fill="#e2e8f0"/>
  <rect x="115" y="155" width="75" height="22" rx="4" fill="#1a3a5c"/>
  <rect x="215" y="160" width="65" height="18" rx="4" fill="#e2e8f0"/>
</svg>
